<svg version="1" xmlns="http://www.w3.org/2000/svg" width="1032" height="1032" viewBox="0 0 774.000000 774.000000"><path d="M245.5 168.1c-20.7 25.6-23.5 29.5-23.5 32.6 0 3.1-3.1 7.1-30.7 39.4-30 34.9-30.9 35.9-34.4 35.9-4.6 0-.2-4.8-59.4 65.9l-48 57.3-.3 6.2-.3 6.3-21.7 25.5c-11.9 14-22.4 26.3-23.2 27.3-1.3 1.5-1.6 9.9-2.2 54.9C1.4 548.6.9 575.9.5 580c-.6 7.4-.6 7.6 2.7 11.8l3.2 4.2H110.7l6.6-3 6.7-3h112.6l2.8 2.9c2.4 2.5 2.8 4 3.6 11.7 1.5 15.4 4.5 24.8 8.3 26 3.8 1.2 4.6-1.3 3.1-10.1-2.4-14.8-1.6-28.3 2.1-33 1.5-1.9 1.5-1.9 2.9-.2.8 1.1 1.8 3.8 2.2 6 .3 2.3 2.2 9.1 4.1 15.2 3.4 10.7 3.7 11.1 11.1 18.7l7.5 7.8h37.4l6.8-10.2c6.3-9.5 7.1-11.4 10.6-24.2 3.5-12.9 5.1-16.2 7.1-15 .4.3.8 1.8.8 3.4 0 5 1.7 8.2 4.3 7.8 1.5-.2 2.3-1.1 2.5-2.8.2-1.3 1.8-4.4 3.5-6.7l3-4.3h53.6l2.6 3.4c1.5 1.9 3 4.7 3.4 6.2 1.7 6.3 7.1 5.2 7.1-1.5 0-2 .4-4.2.8-4.8 1.9-3 4.3 1.5 8.1 15 3.4 12.4 4.5 14.7 10.5 23.7l6.6 10h37.9l7.3-8.1c7.9-8.7 9.7-12.5 14-29.9 2.5-10.4 3.9-12.3 6.2-8.8 3 4.6 3.9 13.8 2.5 24.6-1.9 15-1.8 17.6.8 18 4.4.6 8.7-10.5 9.8-25.9.7-8.9.9-9.5 3.9-12.1l3.1-2.7 56-.1h56l6.3 3 6.4 3H767.9l3.1-3.8c3.1-3.7 3.1-3.8 2.5-12.2-.3-4.7-.9-32.4-1.3-61.7l-.7-53.2-2.6-2.8c-1.4-1.5-11.7-13.5-22.7-26.5L726 412.2v-11.9l-52.1-61.9c-51.5-61.1-52.2-61.9-56.3-62.4-4-.5-4.9-1.4-34.3-35.7-26.3-30.6-30.3-35.7-30.3-38.5 0-4.3.2-3.9-25.5-35.7L505.6 139h-54.2l-3 4-2.9 4H329.1l-2.8-4-2.8-4h-54.4l-23.6 29.1z"/></svg>